<svg
    version="1.1"
    viewBox="0 0 640 300"
    xmlns="http://www.w3.org/2000/svg"
    xmlns:xlink="http://www.w3.org/1999/xlink"
    xmlns:svgjs="http://svgjs.dev/svgjs"
  >
  <svg
    viewBox="0 0 640 300"
    preserveAspectRatio="xMidYMid meet"
    height="300"
    width="640"
    xmlns="http://www.w3.org/2000/svg"
    xmlns:xlink="http://www.w3.org/1999/xlink"
  >
    <g
      id="tight-bounds"
      transform="matrix(1,0,0,1,0,0)"
    >
      <svg
        viewBox="0 0 640 300"
        height="300"
        width="640"
      >
        <g>
          <svg
            viewBox="0 0 601.478342554248 106.64011606217613"
            height="300"
            width="640"
          >
            <g
              transform="matrix(1,0,0,1,190,0)"
            >
              <svg
                viewBox="0 0 395.52 106.10956822107079"
                height="106.10956822107079"
                width="395.52"
              >
                <g id="textblocktransform">
                  <svg
                    viewBox="0 0 395.52 106.10956822107079"
                    height="106.10956822107079"
                    width="395.52"
                    id="textblock"
                  >
                    <g>
                      <svg
                        viewBox="0 0 395.52 106.10956822107079"
                        height="106.10956822107079"
                        width="395.52"
                      >
                        <g transform="matrix(1,0,0,1,0,0)">
                          <svg
                            width="395.52"
                            viewBox="0.5 -35.599998474121094 173.69000244140625 46.599998474121094"
                            height="106.10956822107079"
                            data-palette-color="#7efff5"
                          >
                            <path
                              d="M18.7 0L13.35 0 0.5-33.75 5.15-35.55 16.15-5.2 27.2-35.4 31.5-33.75 18.7 0ZM42.25 0.6L42.25 0.6Q40 0.6 38-0.35 36-1.3 34.75-3.43 33.5-5.55 33.5-9.1L33.5-9.1 33.5-26 38-26 38-9.7Q38-6.65 39.3-5.03 40.6-3.4 43.1-3.4L43.1-3.4Q45.15-3.4 47.07-4.23 49-5.05 50.5-6.45L50.5-6.45 50.5-26 55-26 55-6.75Q55-4.6 55.92-3.93 56.85-3.25 57.95-3.25L57.95-3.25 57 0.25Q52.35 0.25 51.25-3.45L51.25-3.45Q49.5-1.65 47.2-0.53 44.9 0.6 42.25 0.6ZM73.85 0.6L73.85 0.6Q68.25 0.6 64.97-2.98 61.7-6.55 61.7-13L61.7-13Q61.7-16.9 63.17-19.98 64.65-23.05 67.3-24.83 69.95-26.6 73.45-26.6L73.45-26.6Q77.2-26.6 79.67-24.98 82.15-23.35 83.4-20.6 84.65-17.85 84.65-14.55L84.65-14.55Q84.65-12.8 84.5-11.15L84.5-11.15 66.3-11.15Q66.75-7.5 68.85-5.45 70.95-3.4 74.4-3.4L74.4-3.4Q76.65-3.4 78.45-3.88 80.25-4.35 81.9-5.1L81.9-5.1 82.95-1.25Q81.15-0.45 78.9 0.08 76.65 0.6 73.85 0.6ZM66.25-14.8L66.25-14.8 80.5-14.8Q80.5-18.6 78.6-20.65 76.7-22.7 73.35-22.7L73.35-22.7Q70.45-22.7 68.55-20.68 66.65-18.65 66.25-14.8ZM104.59 0.6L104.59 0.6Q100.04 0.6 96.54-1.58 93.04-3.75 91.09-7.78 89.14-11.8 89.14-17.35L89.14-17.35Q89.14-22.7 91.12-26.83 93.09-30.95 96.72-33.27 100.34-35.6 105.19-35.6L105.19-35.6Q107.69-35.6 109.74-35.13 111.79-34.65 113.59-33.8L113.59-33.8 112.14-29.8Q110.59-30.55 108.97-31 107.34-31.45 105.14-31.45L105.14-31.45Q101.94-31.45 99.42-29.8 96.89-28.15 95.44-25.05 93.99-21.95 93.99-17.55L93.99-17.55Q93.99-13.35 95.42-10.2 96.84-7.05 99.37-5.3 101.89-3.55 105.14-3.55L105.14-3.55Q107.59-3.55 109.39-4.15 111.19-4.75 112.89-5.7L112.89-5.7 114.34-1.75Q112.49-0.75 110.12-0.08 107.74 0.6 104.59 0.6ZM128.84 0.6L128.84 0.6Q126.59 0.6 124.59-0.35 122.59-1.3 121.34-3.43 120.09-5.55 120.09-9.1L120.09-9.1 120.09-26 124.59-26 124.59-9.7Q124.59-6.65 125.89-5.03 127.19-3.4 129.69-3.4L129.69-3.4Q131.74-3.4 133.67-4.23 135.59-5.05 137.09-6.45L137.09-6.45 137.09-26 141.59-26 141.59-6.75Q141.59-4.6 142.52-3.93 143.44-3.25 144.54-3.25L144.54-3.25 143.59 0.25Q138.94 0.25 137.84-3.45L137.84-3.45Q136.09-1.65 133.79-0.53 131.49 0.6 128.84 0.6ZM155.24 11L150.74 11 150.74-19.35Q150.74-21.05 149.91-21.78 149.09-22.5 147.79-22.5L147.79-22.5 148.74-26Q153.34-26 154.49-22.35L154.49-22.35Q154.99-23.1 156.11-24.1 157.24-25.1 158.91-25.85 160.59-26.6 162.74-26.6L162.74-26.6Q165.74-26.6 168.36-25.03 170.99-23.45 172.59-20.48 174.19-17.5 174.19-13.25L174.19-13.25Q174.19-9.1 172.59-5.98 170.99-2.85 168.41-1.13 165.84 0.6 162.84 0.6L162.84 0.6Q160.54 0.6 158.54-0.33 156.54-1.25 155.24-2.45L155.24-2.45 155.24 11ZM161.94-3.4L161.94-3.4Q165.34-3.4 167.46-6.08 169.59-8.75 169.59-13.1L169.59-13.1Q169.59-16.1 168.51-18.25 167.44-20.4 165.66-21.55 163.89-22.7 161.74-22.7L161.74-22.7Q159.59-22.7 157.86-21.63 156.14-20.55 155.24-19.3L155.24-19.3 155.24-6.5Q156.54-5.15 158.24-4.28 159.94-3.4 161.94-3.4Z"
                              opacity="1"
                              transform="matrix(1,0,0,1,0,0)"
                              fill="#7efff5"
                              class="wordmark-text-0"
                              data-fill-palette-color="primary"
                              id="text-0"
                            ></path>
                          </svg>
                        </g>
                      </svg>
                    </g>
                  </svg>
                </g>
              </svg>
            </g>
            <g transform="matrix(1,0,0,1,10,0)">
              <svg
                viewBox="0 0 146.28942733228237 106.10956822107079"
                height="106.10956822107079"
                width="146.28942733228237"
              >
                <g>
                  <svg
                    xmlns="http://www.w3.org/2000/svg"
                    xmlns:xlink="http://www.w3.org/1999/xlink"
                    version="1.1"
                    x="0"
                    y="0"
                    viewBox="0 13.732999801635742 100 72.53399658203125"
                    enable-background="new 0 0 100 100"
                    xml:space="preserve"
                    height="106.10956822107079"
                    width="146.28942733228237"
                    class="icon-icon-0"
                    data-fill-palette-color="accent"
                    id="icon-0"
                  >
                    <g
                      fill="#7efff5"
                      data-fill-palette-color="accent"
                    >
                      <path
                        fill-rule="evenodd"
                        clip-rule="evenodd"
                        d="M66.096 58.147C67.797 53.402 69.498 47.296 69.498 39.499S71.871 23.903 80.68 23.903C87.118 23.903 89.159 27.636 90.85 31.37 91.862 34.404 92.203 37.457 92.203 39.499 92.542 48.657 83.053 61.2 66.096 58.147M49.489 86.267H20C9.508 77.457 0 60.851 0 45.604V13.733H69.498V21.531C73.562 18.478 75.255 17.467 81.011 17.467 86.786 17.467 100 22.892 100 39.15 100 55.426 84.063 64.585 71.521 64.585 70.849 64.585 68.137 64.235 67.457 64.235 66.795 64.235 64.404 64.916 63.061 68.318 61.352 71.37 55.255 81.19 49.489 86.267"
                        fill="#7efff5"
                        data-fill-palette-color="accent"
                      ></path>
                    </g>
                  </svg>
                </g>
              </svg>
            </g>
          </svg>
        </g>
        <defs></defs>
      </svg>
    </g>
  </svg>
  </svg>